<svg width="220" height="40" xmlns="http://www.w3.org/2000/svg" version="1.1">

 <g>
  <title>Layer 1</title>
  <path id="svg_1" d="m24.0785,13.925l-0.69,-2.88s-1.41,-0.48 -3.36,-0.48c-3.15,0 -4.95,2.34 -4.95,7.35c0,4.86 1.95,6.9 5.1,6.9c3,0 5.7,-2.1 5.7,-2.1l1.65,2.7s-3.15,3.27 -7.86,3.27c-6.09,0 -9.6,-3.66 -9.6,-10.62c0,-7.05 3.96,-11.25 10.11,-11.25c3.63,0 6.99,1.41 6.99,1.41l-0.15,5.7l-2.94,0zm17.7153,14.4l-0.54,-1.95s-2.31,2.25 -4.86,2.25c-2.91,0 -4.68,-1.71 -4.68,-4.71c0,-3.54 2.67,-4.95 7.23,-4.95l2.1,0l0,-1.65c0,-1.53 -0.81,-2.19 -2.31,-2.19c-1.53,0 -2.64,0.45 -2.64,0.45l-0.45,1.89l-2.7,0l-0.21,-4.44s3.63,-1.2 6.51,-1.2c4.56,0 6.3,1.59 6.3,5.94l0,7.41l2.25,0.54l0,2.4l-6,0.21zm-0.75,-6.81l-1.71,0c-2.34,0 -3.27,0.6 -3.27,1.95c0,1.14 0.63,1.8 1.77,1.8c1.59,0 3.21,-1.74 3.21,-1.74l0,-2.01zm16.9353,-9.39l0.27,2.07s2.16,-2.37 4.17,-2.37c1.65,0 2.79,0.54 2.79,0.54l-0.24,5.76l-2.7,0l-0.45,-2.55c-1.74,0 -3.24,1.68 -3.24,1.68l0,7.92l3,0.75l0,2.4l-9.9,0l0,-2.4l2.4,-0.75l0,-9.75l-2.4,-0.75l0,-2.4l6.3,-0.15zm12.9153,12.75l0,-14.1l-2.25,-0.9l0,-2.55l6.9,-0.15l2.85,0c6,0 9.54,3.54 9.54,10.29s-3.9,10.86 -9.99,10.86l-9.3,0l0,-2.55l2.25,-0.9zm4.65,-0.15l2.49,0c2.91,0 4.86,-1.71 4.86,-7.11c0,-5.04 -1.71,-6.84 -4.65,-6.84l-2.7,0l0,13.95zm31.6653,-3.51l-9.96,0c0.18,2.4 1.56,3.81 3.63,3.81c2.49,0 5.04,-1.41 5.04,-1.41l1.29,2.49s-3,2.52 -6.84,2.52c-5.16,0 -7.8,-3 -7.8,-8.1c0,-5.25 2.97,-8.7 8.01,-8.7c4.47,0 6.81,2.76 6.81,7.05c0,1.14 -0.18,2.25 -0.18,2.34zm-9.9,-2.79l5.43,0c0,-1.71 -0.72,-3 -2.46,-3c-1.68,0 -2.73,1.23 -2.97,3zm20.7453,6.75l2.7,0.75l0,2.4l-9.63,0l0,-2.4l2.4,-0.75l0,-16.86l-2.4,-0.6l0,-2.4l6.93,-0.24l0,20.1zm7.8453,-18c0,-1.71 1.23,-2.7 2.58,-2.7c1.56,0 2.52,0.81 2.52,2.7c0,1.77 -1.29,2.73 -2.52,2.73c-1.62,0 -2.58,-0.96 -2.58,-2.73zm5.04,18l2.1,0.75l0,2.4l-9,0l0,-2.4l2.4,-0.75l0,-9.75l-2.4,-0.75l0,-2.4l6.9,-0.15l0,13.05zm15.0453,-10.5l0,-2.4l7.86,-0.15l0,2.55l-1.71,0.39l-4.83,13.26l-4.95,0l-4.74,-13.17l-1.44,-0.48l0,-2.4l7.86,-0.15l0,2.55l-1.68,0.3l2.73,8.85l2.64,-8.76l-1.74,-0.39zm25.7853,6.54l-9.96,0c0.18,2.4 1.56,3.81 3.63,3.81c2.49,0 5.04,-1.41 5.04,-1.41l1.29,2.49s-3,2.52 -6.84,2.52c-5.16,0 -7.8,-3 -7.8,-8.1c0,-5.25 2.97,-8.7 8.01,-8.7c4.47,0 6.81,2.76 6.81,7.05c0,1.14 -0.18,2.25 -0.18,2.34zm-9.9,-2.79l5.43,0c0,-1.71 -0.72,-3 -2.46,-3c-1.68,0 -2.73,1.23 -2.97,3zm20.5653,-6.3l0.27,2.07s2.16,-2.37 4.17,-2.37c1.65,0 2.79,0.54 2.79,0.54l-0.24,5.76l-2.7,0l-0.45,-2.55c-1.74,0 -3.24,1.68 -3.24,1.68l0,7.92l3,0.75l0,2.4l-9.9,0l0,-2.4l2.4,-0.75l0,-9.75l-2.4,-0.75l0,-2.4l6.3,-0.15zm9.6153,2.55l0,-2.4l8.01,-0.15l0,2.55l-1.68,0.3l2.67,8.4l2.55,-8.31l-1.74,-0.39l0,-2.4l8.07,-0.15l0,2.55l-1.86,0.39l-4.41,12.3c-1.44,3.96 -3.39,8.16 -8.16,8.16c-1.02,0 -2.91,-0.24 -2.91,-0.24l0.42,-3.21l1.95,0c2.4,0 3.51,-2.55 4.02,-3.72l-5.34,-13.2l-1.59,-0.48z" fill="#1e3a8a"/>
  <path id="svg_2" fill="#"/>
 </g>
</svg>